<svg width="40" height="40" viewBox="0 0 40 40" fill="none" xmlns="http://www.w3.org/2000/svg">
<path d="M22.6 12.6761C24.4 12.1761 25.8 12.9761 26.4 13.8761C27.1 13.6761 27.8 13.3761 28.5 13.1761C28.5 14.0761 27.9 14.6761 27.6 14.9761C28.3 15.0761 29 14.3761 29 14.3761C28.8 15.3761 27.9 16.1761 27.3 16.3761C27.1 23.1761 24 27.5761 16.7 27.4761C16.1 27.4761 16.8 27.4761 16.2 27.4761C15.8 27.4761 11.8 26.9761 11 25.5761C13.4 25.7761 15.1 25.1761 16 24.3761C15 24.0761 13.1 23.9761 12.8 21.4761C13.2 21.5761 13.4 21.6761 14.1 21.5761C12.8 20.7761 11.4 19.9761 11.5 17.7761C11.8 18.0761 12.6 18.2761 12.9 18.2761C12.1 18.0761 10.8 14.9761 11.9 13.3761C13.8 15.2761 15.9 16.9761 19.5 17.1761C19.7 14.7761 20.7 13.2761 22.6 12.6761Z" fill="#68A2CA"/>
<rect x="1.5" y="1.5" width="37" height="37" rx="8.5" stroke="#83B3D3" stroke-width="3"/>
</svg>
